<svg width="46" height="46" viewBox="0 0 46 46" fill="none" xmlns="http://www.w3.org/2000/svg">
<path d="M37.7999 4.37068C37.6046 4.59279 37.5677 4.91284 37.7079 5.17319C37.8324 5.40446 38.0738 5.54537 38.3307 5.54537C38.3626 5.54537 38.3951 5.54316 38.4277 5.53905L42.8013 4.93402C43.1883 4.8803 43.4587 4.52297 43.4057 4.13562C43.352 3.74859 42.9889 3.47593 42.6073 3.53122L40.2352 3.85948C40.9675 3.14545 41.7426 2.47373 42.5529 1.85232C42.7915 1.66907 42.8885 1.35565 42.7949 1.07035C42.7014 0.785057 42.4376 0.5898 42.1368 0.583483C40.2175 0.546833 38.3231 0.795798 36.4871 1.32943C36.112 1.43844 35.8962 1.83115 36.0043 2.20619C36.1133 2.58185 36.5047 2.79796 36.8811 2.68896C37.9249 2.38597 38.9916 2.18156 40.0693 2.07666C39.268 2.79638 38.5082 3.56351 37.7989 4.37104L37.7999 4.37068Z" fill="url(#paint0_linear_1_158)"/>
<path d="M42.0972 19.8549C40.3832 19.9554 38.6824 20.2596 37.0421 20.7601C36.6683 20.8741 36.4576 21.2697 36.5713 21.6441C36.686 22.0179 37.0809 22.2286 37.4553 22.1149C38.1836 21.8927 38.9245 21.7114 39.6733 21.5727L37.5113 23.2437C37.2586 23.439 37.1682 23.7796 37.2905 24.0746C37.4007 24.3413 37.6607 24.5112 37.9438 24.5112C37.9742 24.5112 38.0048 24.509 38.0351 24.5056L41.2546 24.0888C41.6426 24.0386 41.9156 23.6841 41.8654 23.2961C41.8151 22.9081 41.4578 22.633 41.0727 22.6854L40.4427 22.7669L42.5699 21.1221C42.8154 20.9325 42.9089 20.6049 42.8 20.3139C42.691 20.0229 42.3971 19.8397 42.0957 19.8552L42.0972 19.8549Z" fill="url(#paint1_linear_1_158)"/>
<path d="M37.7093 13.3834C38.635 13.0375 39.6116 12.8144 40.599 12.719C39.9661 13.3165 39.3712 13.9866 38.9238 14.772C38.7914 15.0042 38.8012 15.2908 38.9485 15.5139C39.0808 15.7126 39.303 15.8301 39.538 15.8301C39.5655 15.8301 39.5933 15.8289 39.6214 15.8251L42.0596 15.5357C42.4476 15.4895 42.725 15.1379 42.6789 14.7493C42.6327 14.3607 42.2776 14.0855 41.8925 14.13L41.0922 14.2248C41.6634 13.6141 42.3294 13.0691 42.9818 12.5354C43.2061 12.3522 43.2962 12.0498 43.2084 11.7734C43.1205 11.4972 42.8728 11.302 42.584 11.2815C40.7725 11.1513 38.9159 11.4208 37.2139 12.0565C36.848 12.193 36.6619 12.6015 36.7984 12.9674C36.9359 13.3332 37.3419 13.5187 37.7093 13.3828L37.7093 13.3834Z" fill="url(#paint2_linear_1_158)"/>
<path d="M21.8564 26.7444C22.0921 26.7785 22.33 26.7953 22.5676 26.7953C23.1613 26.7953 23.7537 26.6904 24.3122 26.4837C24.6787 26.3485 24.8664 25.9409 24.7305 25.5745C24.5953 25.207 24.1871 25.0209 23.8213 25.1561C23.2592 25.3628 22.6494 25.4272 22.0571 25.3438C21.6685 25.2879 21.3111 25.5561 21.2558 25.9441C21.1999 26.3305 21.4688 26.6894 21.8561 26.7453L21.8564 26.7444Z" fill="url(#paint3_linear_1_158)"/>
<path d="M5.00152 32.0947C5.017 32.1604 5.02269 32.2255 5.04101 32.2921C5.17845 32.7945 5.34053 33.1196 5.46975 33.3812C5.62393 33.6912 5.70892 33.8624 5.72314 34.2532C5.74304 34.8194 5.58444 35.1527 5.40056 35.5391C5.20309 35.9523 4.98004 36.4215 5.01637 37.0995C5.08082 38.2176 5.78632 39.0726 6.43746 39.6296C5.66466 40.7407 5.09345 42.1489 4.73959 43.8371C4.65176 44.2617 4.75791 44.6961 5.03058 45.031C5.30008 45.3615 5.69943 45.5511 6.12628 45.5511L39.2903 45.5514C39.7171 45.5514 40.1162 45.3618 40.386 45.0314C40.6583 44.6974 40.7645 44.262 40.676 43.8345C40.1332 41.2564 39.0922 39.3532 37.5924 38.1516C37.6512 37.126 37.8543 36.1415 38.2139 35.2244C38.5684 34.3198 38.9004 33.9031 39.1927 33.5367C39.4587 33.2018 39.7349 32.8564 39.9153 32.2903C39.9576 32.1573 39.9901 32.0261 40.0151 31.896C41.2444 31.8783 43.1468 31.7475 44.246 30.4382C45.0557 29.4787 45.1682 28.2655 45.219 26.9995C45.4257 21.255 45.3925 15.4867 45.1192 9.85655C45.0478 8.32643 44.5341 7.2968 43.5834 6.79064C43.0337 6.50755 42.4312 6.4134 41.8574 6.342C38.7087 5.96349 35.4652 5.71705 31.9599 5.58531C31.9027 5.52812 31.848 5.47504 31.7886 5.41532C30.0392 3.68712 28.657 2.32192 26.4596 1.89793C25.4757 1.70615 24.4489 1.72511 23.4094 1.95796C22.8878 2.07391 22.4067 2.0954 21.9312 2.01894C20.6642 1.83506 19.4194 1.88656 18.2321 2.17312C15.6439 2.79458 14.0617 4.34714 13.3906 5.00528C13.22 5.16956 13.0276 5.37051 12.8266 5.58978C11.3616 5.58346 9.90033 5.56861 8.43661 5.55218L6.93334 5.53575C4.96435 5.51869 2.57235 5.71679 1.46847 7.5117C0.903563 8.42097 0.860599 9.47688 0.825213 10.3242C0.739591 12.2641 0.618584 14.2378 0.501055 16.1464C0.308645 19.2809 0.108963 22.5222 0.0599976 25.7341V27.8722C0.074215 28.5268 0.145619 29.4829 0.603427 30.2304C1.51497 31.7144 3.34807 32.0401 4.99976 32.0932L5.00152 32.0947ZM14.2762 19.8281C14.3066 19.928 14.3334 20.0269 14.3717 20.1283C14.4532 20.3434 14.5606 20.5592 14.6803 20.7738C14.7198 21.1772 14.766 21.5671 14.8105 21.933L14.838 22.1551C14.8797 22.4969 14.9208 22.8239 14.9641 23.1452C14.7802 23.1474 14.6115 23.1133 14.4623 23.0432C13.6782 22.6729 13.5578 21.307 13.5057 20.7112C13.4908 20.5598 13.4703 20.3283 13.4681 20.0714C13.7347 20.0262 14.0052 19.939 14.2763 19.8278L14.2762 19.8281ZM12.5736 18.6563C12.4959 18.6351 12.4321 18.614 12.3802 18.5947C12.4093 18.5685 12.4425 18.5404 12.4813 18.5075C12.906 18.1593 13.487 17.8535 14.1701 17.5926C14.1221 17.8368 14.0895 18.0937 14.081 18.3632C13.6753 18.5897 13.1107 18.8033 12.5742 18.656L12.5736 18.6563ZM31.9505 20.0633C31.9483 20.3252 31.9277 20.5637 31.9122 20.7242C31.8604 21.3074 31.7404 22.6733 30.9562 23.0442C30.899 23.0711 30.8302 23.0755 30.7679 23.0916C30.8529 22.3337 30.8741 21.5751 30.8633 20.8269C31.0551 20.5404 31.2137 20.2339 31.3256 19.9047C31.518 19.9733 31.729 20.0257 31.9505 20.064L31.9505 20.0633ZM31.5094 17.6845C32.2017 17.9727 32.6566 18.2706 32.9375 18.5034C32.977 18.5366 33.0111 18.5663 33.0408 18.5925C32.989 18.6124 32.9255 18.6336 32.8474 18.6554C32.3915 18.7793 31.9189 18.6406 31.5616 18.4744C31.5644 18.214 31.5473 17.9505 31.5091 17.6845L31.5094 17.6845ZM15.5708 32.0451L18.4434 32.0309C18.4412 32.4138 18.4286 32.798 18.3995 33.1822C17.483 33.6845 16.5759 34.1417 15.6628 34.5834C15.7364 33.4971 15.6549 32.6994 15.5715 32.0441L15.5708 32.0451ZM17.9154 23.1222C18.0387 23.1358 18.1574 23.1421 18.2721 23.1421C19.3217 23.1421 20.0421 22.6107 20.6853 22.1364C20.9798 21.9191 21.2585 21.7187 21.5564 21.5668C21.4291 21.8726 21.3195 22.2031 21.2932 22.5712C21.2373 23.3462 21.5953 24.0482 22.2063 24.3588C22.3096 24.4113 22.4193 24.4359 22.527 24.4359C22.7845 24.4359 23.0331 24.295 23.1583 24.0495C23.3352 23.7013 23.1971 23.2751 22.849 23.0975C22.7697 23.0571 22.691 22.8726 22.7052 22.6716C22.7257 22.3851 22.873 22.0701 23.0483 21.6951C23.0951 21.5952 23.1409 21.4884 23.1864 21.3823C23.4884 21.4685 23.7314 21.6173 24.0237 21.8075C24.5459 22.1472 25.1955 22.5706 26.357 22.6625C26.8517 22.6991 28.2084 22.7304 29.4257 22.1077C29.3372 23.9123 28.9549 25.4624 27.8488 26.863C26.2792 28.8588 24.5579 29.4129 23.3915 29.5261C20.2358 29.8246 18.0603 27.267 17.8239 26.9761C16.7801 25.6823 16.5346 24.3234 16.3102 22.5339C16.7867 22.8382 17.3222 23.0578 17.9152 23.1228L17.9154 23.1222ZM22.0859 14.0683C22.2514 13.8582 22.417 13.6386 22.5835 13.3994C22.919 12.9148 23.2113 12.4001 23.4836 11.8738C24.7477 12.8045 26.2791 13.3726 27.8127 13.4497C27.8544 13.4519 27.9109 13.4553 27.9605 13.4604L27.9618 13.4674C28.019 13.8105 28.0799 14.1533 28.14 14.4964C26.346 14.17 24.5243 14.013 22.6969 14.0392C22.4924 14.0421 22.2887 14.0604 22.0846 14.0683L22.0859 14.0683ZM15.9647 28.5607C16.1268 28.228 16.3236 27.9146 16.5416 27.6145C16.6039 27.6988 16.657 27.7835 16.7249 27.8679C16.911 28.0972 17.4275 28.6874 18.2174 29.2918C18.2916 29.73 18.3454 30.1723 18.383 30.6165L15.4447 30.6308C15.4475 30.2747 15.4886 29.9053 15.6074 29.458C15.6349 29.3553 15.7524 28.9945 15.9647 28.5607ZM15.4921 36.2353C16.8092 35.6218 18.098 34.9706 19.4142 34.2389C19.6173 34.1264 19.7526 33.921 19.775 33.6904C19.8897 32.5362 19.8834 31.3834 19.7709 30.2444C20.6477 30.6621 21.6846 30.9663 22.8637 30.9663C23.0801 30.9663 23.3019 30.9565 23.5275 30.9344C24.1331 30.8757 24.8585 30.7215 25.6352 30.3872C25.5359 31.4864 25.5347 32.5919 25.6431 33.6895C25.6658 33.9207 25.8001 34.1255 26.0032 34.2386C27.5791 35.1153 29.139 35.8919 30.7398 36.6072C28.7977 37.2909 26.8588 37.7531 24.9565 37.9696C21.6302 38.356 18.3364 37.9936 15.3784 36.9383C15.4245 36.7042 15.4612 36.4692 15.4931 36.2341L15.4921 36.2353ZM41.6865 7.74793C42.1487 7.80607 42.5923 7.87242 42.9284 8.04587C43.3992 8.29642 43.6608 8.92829 43.7075 9.92476C43.9792 15.517 44.0124 21.245 43.8067 26.9464C43.7644 27.9925 43.687 28.9081 43.1647 29.5273C42.4937 30.3263 41.2037 30.4587 39.9778 30.4798C39.6701 29.1933 38.6806 28.0164 37.7131 26.8664C36.4478 25.3624 35.2526 23.942 35.5922 22.446C35.6756 22.0795 35.8923 21.4893 36.1223 20.8644C36.7564 19.1362 37.1953 17.843 37.0522 16.9359C36.9397 16.2184 36.7378 15.8029 36.5043 15.3224C36.285 14.8709 36.0118 14.3082 35.6693 13.2233C35.324 12.132 35.215 11.4872 35.1195 10.9191C35.0112 10.2765 34.918 9.72166 34.5249 8.87871C34.1945 8.16752 33.8201 7.60895 33.367 7.06768C36.2778 7.20797 39.0224 7.42849 41.6865 7.74855L41.6865 7.74793ZM14.3791 6.02256C15.0211 5.39256 16.3573 4.0814 18.5654 3.55121C19.5781 3.30699 20.6434 3.26402 21.7211 3.42041C22.3587 3.52088 23.031 3.49466 23.7204 3.34111C24.5684 3.15154 25.399 3.13385 26.1918 3.28866C27.9702 3.63115 29.1557 4.80237 30.8244 6.45155C32.0332 7.64618 32.6986 8.30423 33.2426 9.47419C33.5548 10.1437 33.6227 10.5449 33.7245 11.1528C33.8227 11.7367 33.9453 12.4633 34.3203 13.6487C34.6941 14.8329 35.0047 15.4724 35.2319 15.9396C35.4527 16.3956 35.575 16.6461 35.6552 17.1547C35.7516 17.7689 35.1763 19.3372 34.7946 20.3754C34.5383 21.0734 34.3169 21.6762 34.2136 22.1312C33.7182 24.3137 35.266 26.1537 36.6318 27.7765C37.84 29.2124 38.9815 30.5691 38.5695 31.8585C38.4674 32.1763 38.3167 32.3659 38.0883 32.6525C37.7685 33.0537 37.3303 33.6028 36.8978 34.7061C36.5736 35.5342 36.36 36.4075 36.2472 37.3105C35.8649 37.1357 35.4454 36.9778 34.9152 36.7803C34.235 36.5275 33.3885 36.2129 32.1876 35.6988C30.4268 34.9459 28.7324 34.12 27.0191 33.1807C26.9265 31.9542 26.9802 30.7201 27.1676 29.5006C27.7698 29.0548 28.377 28.4785 28.9615 27.7364C29.7606 26.7244 30.2257 25.6499 30.5015 24.5552C30.8765 24.5523 31.2348 24.4752 31.5602 24.321C33.0784 23.6035 33.2489 21.6712 33.321 20.8498C33.3485 20.5708 33.3684 20.275 33.3649 19.9657C34.084 19.7316 34.5036 19.3607 34.5886 18.8504C34.709 18.1291 34.0995 17.6255 33.8392 17.4103C33.1412 16.8328 32.1846 16.3677 31.0124 16.0126C30.8898 15.7494 30.7492 15.4904 30.5856 15.237C30.4892 15.0875 30.3407 14.9795 30.1689 14.9349C29.9913 14.8888 29.8099 14.8572 29.6317 14.8146C29.5382 14.285 29.4441 13.7523 29.3493 13.1855C29.3126 13.0121 29.258 12.7501 29.0675 12.5125C28.7171 12.0822 28.2028 12.0519 27.8814 12.0336C26.5254 11.9656 25.1674 11.4292 24.0831 10.5508C24.3826 9.79574 24.6351 9.0128 24.8148 8.19265C24.8983 7.81036 24.6562 7.43312 24.2749 7.3497C23.8913 7.2663 23.5154 7.50767 23.4319 7.88965C23.0512 9.62764 22.3732 11.2096 21.419 12.5919C20.9562 13.2573 20.5069 13.7761 20.0207 14.2203C18.5155 14.3874 17.0221 14.662 15.5614 15.0702C15.4211 15.109 15.2967 15.1899 15.2053 15.3024C15.1835 15.3293 15.0107 15.5451 14.8082 15.8983C13.4584 16.2641 12.3665 16.7694 11.5824 17.413C11.3439 17.6088 10.7104 18.1292 10.8308 18.8502C10.9157 19.3646 11.3347 19.7349 12.0522 19.9662C12.0488 20.2755 12.0687 20.5699 12.0961 20.8474C12.1691 21.6726 12.3388 23.6046 13.8575 24.3221C14.193 24.4807 14.5611 24.56 14.9488 24.56C15.0303 24.56 15.1143 24.5452 15.1971 24.5389C15.3279 25.1518 15.5093 25.735 15.7668 26.3031C15.3421 26.8041 14.9797 27.3504 14.6932 27.9378C14.442 28.4521 14.2904 28.9039 14.2401 29.0907C13.9166 30.3029 14.0256 31.1389 14.1409 32.0226C14.2373 32.76 14.3453 33.596 14.2196 34.8655C14.1912 35.1536 14.163 35.4259 14.1362 35.6799C13.9729 37.079 13.7463 37.9702 13.0187 38.6694C12.0143 39.6334 10.3231 39.9553 8.90257 39.4536C8.55725 39.3326 8.17369 39.1364 7.8211 38.9016C6.97403 38.3389 6.4673 37.6518 6.43034 37.0183C6.41328 36.7033 6.51881 36.4812 6.67867 36.1457C6.89793 35.6857 7.17059 35.1131 7.13868 34.1988C7.11246 33.5025 6.92226 33.1196 6.73807 32.7486C6.62496 32.5208 6.50743 32.2851 6.40601 31.9143C5.91629 30.137 6.60758 28.3659 7.06412 27.4654C7.45684 26.6835 7.77815 26.408 8.11874 26.1173C8.49376 25.796 8.91902 25.4323 9.22423 24.5483C9.61221 23.4251 9.43086 22.5851 9.27099 21.8436C9.12376 21.1599 8.9838 20.5144 9.23971 19.5441C9.39105 18.9722 9.56166 18.7182 9.79798 18.3665C10.0337 18.0162 10.3275 17.5801 10.6318 16.7855C11.1351 15.474 11.118 14.5875 11.101 13.7297C11.0902 13.1983 11.0798 12.6483 11.1882 11.9386C11.6425 8.93368 13.5689 6.80075 14.3808 6.01846L14.3791 6.02256ZM1.47686 25.7472C1.52488 22.5789 1.72329 19.3544 1.91507 16.2363C2.03323 14.322 2.15424 12.3426 2.24049 10.3878C2.27651 9.51868 2.33117 8.81096 2.67366 8.25903C3.40254 7.07362 5.22839 6.9362 6.91931 6.95384L8.42258 6.97026C9.5195 6.98227 10.6165 6.99017 11.7135 6.9987C10.8762 8.21031 10.0788 9.7964 9.78625 11.7306C9.65956 12.5593 9.67219 13.1985 9.68357 13.7624C9.7 14.5827 9.71264 15.2309 9.30854 16.2834C9.06084 16.9289 8.83779 17.2606 8.62199 17.5813C8.3566 17.9762 8.08204 18.3838 7.86973 19.1872C7.52787 20.4858 7.72692 21.4067 7.88616 22.147C8.03055 22.8143 8.1446 23.3416 7.88553 24.091C7.70575 24.611 7.52535 24.7662 7.19771 25.0464C6.80626 25.3819 6.31942 25.798 5.80064 26.8321C5.38801 27.6459 4.81776 29.0648 4.82472 30.6715C3.60737 30.6127 2.35119 30.37 1.81284 29.493C1.5029 28.9869 1.48457 28.1272 1.47794 27.8596V25.7472L1.47686 25.7472Z" fill="url(#paint4_linear_1_158)"/>
<defs>
<linearGradient id="paint0_linear_1_158" x1="34.883" y1="0.457398" x2="43.8173" y2="1.49291" gradientUnits="userSpaceOnUse">
<stop offset="0.270833" stop-color="#A3A3A3"/>
<stop offset="0.412103" stop-color="#CCCCCC"/>
<stop offset="0.551716" stop-color="white"/>
<stop offset="0.677083" stop-color="#CCCCCC"/>
<stop offset="0.833333" stop-color="#A3A3A3"/>
</linearGradient>
<linearGradient id="paint1_linear_1_158" x1="35.6134" y1="19.7393" x2="43.2068" y2="20.5349" gradientUnits="userSpaceOnUse">
<stop offset="0.270833" stop-color="#A3A3A3"/>
<stop offset="0.412103" stop-color="#CCCCCC"/>
<stop offset="0.551716" stop-color="white"/>
<stop offset="0.677083" stop-color="#CCCCCC"/>
<stop offset="0.833333" stop-color="#A3A3A3"/>
</linearGradient>
<linearGradient id="paint2_linear_1_158" x1="35.7997" y1="11.1365" x2="43.6059" y2="11.9922" gradientUnits="userSpaceOnUse">
<stop offset="0.270833" stop-color="#A3A3A3"/>
<stop offset="0.412103" stop-color="#CCCCCC"/>
<stop offset="0.551716" stop-color="white"/>
<stop offset="0.677083" stop-color="#CCCCCC"/>
<stop offset="0.833333" stop-color="#A3A3A3"/>
</linearGradient>
<linearGradient id="paint3_linear_1_158" x1="20.73" y1="25.0705" x2="24.9137" y2="25.7489" gradientUnits="userSpaceOnUse">
<stop offset="0.270833" stop-color="#A3A3A3"/>
<stop offset="0.412103" stop-color="#CCCCCC"/>
<stop offset="0.551716" stop-color="white"/>
<stop offset="0.677083" stop-color="#CCCCCC"/>
<stop offset="0.833333" stop-color="#A3A3A3"/>
</linearGradient>
<linearGradient id="paint4_linear_1_158" x1="-6.6" y1="0.686642" x2="48.1992" y2="5.07401" gradientUnits="userSpaceOnUse">
<stop offset="0.270833" stop-color="#A3A3A3"/>
<stop offset="0.412103" stop-color="#CCCCCC"/>
<stop offset="0.551716" stop-color="white"/>
<stop offset="0.677083" stop-color="#CCCCCC"/>
<stop offset="0.833333" stop-color="#A3A3A3"/>
</linearGradient>
</defs>
</svg>
