<svg width="47" height="45" viewBox="0 0 47 45" fill="none" xmlns="http://www.w3.org/2000/svg">
<path d="M46.0397 20.2013C46.0305 17.5692 44.9807 15.0471 43.1194 13.1859C41.258 11.3246 38.736 10.2748 36.104 10.2655C35.8987 10.2655 35.6934 10.2862 35.5087 10.2862H35.5083C34.5478 6.34132 31.8595 3.04025 28.1914 1.30003C24.5233 -0.439836 20.266 -0.432915 16.6029 1.31836C12.9403 3.07019 10.2625 6.37948 9.31444 10.3275C6.82629 10.5823 4.52101 11.7489 2.84203 13.6024C1.16269 15.4555 0.228831 17.8648 0.220033 20.3657C0.212243 22.5565 0.934396 24.6872 2.27287 26.4216C2.04696 26.5242 1.82106 26.6269 1.61577 26.7295H1.61623C1.36283 26.8551 1.17038 27.0769 1.0824 27.3454C0.996712 27.6052 1.0265 27.8893 1.16442 28.1253C5.51667 36.3366 12.0857 36.6652 15.2269 36.2953V36.2958C14.4658 38.6249 12.9486 40.6337 10.916 42.0024C8.83698 43.109 6.3805 43.2584 4.18291 42.413C3.639 42.2466 3.06256 42.5486 2.88939 43.0902C2.72901 43.6286 3.03098 44.1955 3.5671 44.3632C4.77721 44.7738 6.04563 44.9887 7.32355 44.9997C8.95256 45.013 10.5554 44.5878 11.9631 43.768C14.2592 42.2751 16.0096 40.0784 16.9512 37.5069C20.749 43.1934 27.4207 43.9939 30.8495 43.9939C31.5973 44.01 32.3456 43.9687 33.087 43.8707C33.613 43.7868 33.9878 43.3139 33.9494 42.7824C34.65 42.9813 35.3763 43.0784 36.1048 43.0702C38.4523 43.0633 40.7013 42.1244 42.3568 40.4596C44.0124 38.795 44.9389 36.5414 44.933 34.1935C44.927 31.846 43.9886 29.5965 42.3248 27.9405C44.6741 26.0586 46.041 23.2113 46.0406 20.2011L46.0397 20.2013ZM42.8784 34.2215V34.222C42.8812 36.0215 42.1686 37.7481 40.8984 39.0224C39.6278 40.2966 37.9035 41.0142 36.1041 41.017C35.2357 41.0234 34.3757 40.8484 33.5788 40.5038C33.0844 37.6363 31.5851 35.0381 29.3499 33.1749C27.9872 32.099 26.3664 31.3984 24.649 31.1428C28.9393 25.4155 26.1886 17.9636 26.0654 17.6152C25.8729 17.1038 25.3134 16.833 24.7928 16.9993C17.0947 19.4014 14.9392 24.0403 14.3647 26.8942L14.3642 26.8937C11.3876 24.9702 7.68651 24.538 4.34661 25.7239C3.00628 24.2617 2.26632 22.349 2.27313 20.3659C2.27908 18.258 3.10938 16.2364 4.58626 14.7329C6.06313 13.2291 8.06963 12.3625 10.1765 12.3185C10.6728 12.3217 11.098 11.9657 11.1823 11.4768C11.8101 7.91599 14.0893 4.86325 17.3257 3.24984C20.5621 1.6369 24.3717 1.65426 27.5931 3.29703C30.8148 4.93977 33.066 8.01257 33.6609 11.5793C33.6994 11.857 33.857 12.1045 34.0921 12.257C34.3102 12.4179 34.5842 12.4843 34.8518 12.4417C35.2642 12.3592 35.6835 12.318 36.1041 12.3184C38.4246 12.3157 40.6281 13.3366 42.1261 15.109C43.6241 16.8809 44.2638 19.2238 43.8747 21.5117C43.4856 23.7992 42.1069 25.7989 40.1072 26.9756C39.807 27.1543 39.6187 27.4727 39.6063 27.821C39.5935 28.1697 39.7589 28.501 40.0453 28.7003C41.8251 29.9765 42.8794 32.0325 42.8785 34.2223L42.8784 34.2215Z" fill="url(#paint0_linear_1_167)"/>
<defs>
<linearGradient id="paint0_linear_1_167" x1="-6.51767" y1="-1.1107" x2="48.9314" y2="3.25909" gradientUnits="userSpaceOnUse">
<stop offset="0.270833" stop-color="#A3A3A3"/>
<stop offset="0.412103" stop-color="#CCCCCC"/>
<stop offset="0.551716" stop-color="white"/>
<stop offset="0.677083" stop-color="#CCCCCC"/>
<stop offset="0.833333" stop-color="#A3A3A3"/>
</linearGradient>
</defs>
</svg>
