<svg width="46" height="46" viewBox="0 0 46 46" fill="none" xmlns="http://www.w3.org/2000/svg">
<path d="M4.72006 31C5.00006 31 5.22007 30.78 5.22007 30.5V26H6.22011V24H3.22015V26H4.2202V30.5C4.2202 30.78 4.4402 31 4.72021 31H4.72006Z" fill="url(#paint0_linear_1_172)"/>
<path d="M35.2207 27C36.3207 27 37.2207 26.1 37.2207 25C37.2207 23.9 36.3207 23 35.2207 23C34.1207 23 33.2207 23.9 33.2207 25C33.2207 26.1 34.1207 27 35.2207 27Z" fill="url(#paint1_linear_1_172)"/>
<path d="M5.2202 15.5C5.2202 15.22 5.4402 15 5.72021 15H19.7198C19.9998 15 20.2198 15.22 20.2198 15.5V19H28.7198C28.9998 19 29.2198 19.22 29.2198 19.5V33.0004H41.2199V8.00012H2.72012C1.3401 8.00012 0.220093 9.12012 0.220093 10.5002V19.0002H5.22015L5.2202 15.5ZM35.2198 22.0001C36.8698 22.0001 38.2198 23.3501 38.2198 25C38.2198 26.65 36.8697 28 35.2198 28C33.5699 28 32.2199 26.65 32.2199 25C32.2199 23.3501 33.5699 22.0001 35.2198 22.0001Z" fill="url(#paint2_linear_1_172)"/>
<path d="M37.2203 3.99999H36.2203V0.500006C36.2203 0.220005 36.0003 0 35.7203 0C35.4403 0 35.2203 0.219996 35.2203 0.500006V3.99999H34.2202V6.99995H37.2202L37.2203 3.99999Z" fill="url(#paint3_linear_1_172)"/>
<path d="M26.2205 4H29.2204V6.99996H26.2205V4Z" fill="url(#paint4_linear_1_172)"/>
<path d="M9.72029 19H19.2207V16H6.2204V19H9.72029Z" fill="url(#paint5_linear_1_172)"/>
<path d="M6.72056 23H9.22059V20H0.22052V23H6.72056Z" fill="url(#paint6_linear_1_172)"/>
<path d="M9.72027 39H0.21991V42H16.6497C14.8597 40.1099 12.3396 39 9.71963 39H9.72027Z" fill="url(#paint7_linear_1_172)"/>
<path d="M44.221 11H42.221V16.0001H44.221C44.771 16.0001 45.2211 15.5501 45.2211 15V12C45.2211 11.45 44.7711 11 44.221 11Z" fill="url(#paint8_linear_1_172)"/>
<path d="M2.5304 43L4.03038 46H41.4101L42.9101 43H2.5304Z" fill="url(#paint9_linear_1_172)"/>
<path d="M28.7201 33.9998H0.21991V37.9998H9.72027C12.9203 37.9998 15.9903 39.4898 17.9703 41.9998H45.2206V33.9998H28.7201Z" fill="url(#paint10_linear_1_172)"/>
<path d="M44.221 20.9995H42.221V25.9996H44.221C44.771 25.9996 45.2211 25.5496 45.2211 24.9995V21.9996C45.2211 21.4496 44.7711 20.9995 44.221 20.9995Z" fill="url(#paint11_linear_1_172)"/>
<defs>
<linearGradient id="paint0_linear_1_172" x1="2.77903" y1="23.8272" x2="6.42792" y2="23.9483" gradientUnits="userSpaceOnUse">
<stop offset="0.270833" stop-color="#A3A3A3"/>
<stop offset="0.412103" stop-color="#CCCCCC"/>
<stop offset="0.551716" stop-color="white"/>
<stop offset="0.677083" stop-color="#CCCCCC"/>
<stop offset="0.833333" stop-color="#A3A3A3"/>
</linearGradient>
<linearGradient id="paint1_linear_1_172" x1="32.6325" y1="22.9013" x2="37.4741" y2="23.276" gradientUnits="userSpaceOnUse">
<stop offset="0.270833" stop-color="#A3A3A3"/>
<stop offset="0.412103" stop-color="#CCCCCC"/>
<stop offset="0.551716" stop-color="white"/>
<stop offset="0.677083" stop-color="#CCCCCC"/>
<stop offset="0.833333" stop-color="#A3A3A3"/>
</linearGradient>
<linearGradient id="paint2_linear_1_172" x1="-5.80868" y1="7.38306" x2="43.3232" y2="13.6192" gradientUnits="userSpaceOnUse">
<stop offset="0.270833" stop-color="#A3A3A3"/>
<stop offset="0.412103" stop-color="#CCCCCC"/>
<stop offset="0.551716" stop-color="white"/>
<stop offset="0.677083" stop-color="#CCCCCC"/>
<stop offset="0.833333" stop-color="#A3A3A3"/>
</linearGradient>
<linearGradient id="paint3_linear_1_172" x1="33.7791" y1="-0.172775" x2="37.4281" y2="-0.0517314" gradientUnits="userSpaceOnUse">
<stop offset="0.270833" stop-color="#A3A3A3"/>
<stop offset="0.412103" stop-color="#CCCCCC"/>
<stop offset="0.551716" stop-color="white"/>
<stop offset="0.677083" stop-color="#CCCCCC"/>
<stop offset="0.833333" stop-color="#A3A3A3"/>
</linearGradient>
<linearGradient id="paint4_linear_1_172" x1="25.7793" y1="3.92595" x2="29.4105" y2="4.20699" gradientUnits="userSpaceOnUse">
<stop offset="0.270833" stop-color="#A3A3A3"/>
<stop offset="0.412103" stop-color="#CCCCCC"/>
<stop offset="0.551716" stop-color="white"/>
<stop offset="0.677083" stop-color="#CCCCCC"/>
<stop offset="0.833333" stop-color="#A3A3A3"/>
</linearGradient>
<linearGradient id="paint5_linear_1_172" x1="4.30879" y1="15.926" x2="18.5379" y2="20.6983" gradientUnits="userSpaceOnUse">
<stop offset="0.270833" stop-color="#A3A3A3"/>
<stop offset="0.412103" stop-color="#CCCCCC"/>
<stop offset="0.551716" stop-color="white"/>
<stop offset="0.677083" stop-color="#CCCCCC"/>
<stop offset="0.833333" stop-color="#A3A3A3"/>
</linearGradient>
<linearGradient id="paint6_linear_1_172" x1="-1.10289" y1="19.926" x2="9.29543" y2="22.3404" gradientUnits="userSpaceOnUse">
<stop offset="0.270833" stop-color="#A3A3A3"/>
<stop offset="0.412103" stop-color="#CCCCCC"/>
<stop offset="0.551716" stop-color="white"/>
<stop offset="0.677083" stop-color="#CCCCCC"/>
<stop offset="0.833333" stop-color="#A3A3A3"/>
</linearGradient>
<linearGradient id="paint7_linear_1_172" x1="-2.19599" y1="38.926" x2="14.7628" y2="46.1143" gradientUnits="userSpaceOnUse">
<stop offset="0.270833" stop-color="#A3A3A3"/>
<stop offset="0.412103" stop-color="#CCCCCC"/>
<stop offset="0.551716" stop-color="white"/>
<stop offset="0.677083" stop-color="#CCCCCC"/>
<stop offset="0.833333" stop-color="#A3A3A3"/>
</linearGradient>
<linearGradient id="paint8_linear_1_172" x1="41.7799" y1="10.8766" x2="45.425" y2="11.0459" gradientUnits="userSpaceOnUse">
<stop offset="0.270833" stop-color="#A3A3A3"/>
<stop offset="0.412103" stop-color="#CCCCCC"/>
<stop offset="0.551716" stop-color="white"/>
<stop offset="0.677083" stop-color="#CCCCCC"/>
<stop offset="0.833333" stop-color="#A3A3A3"/>
</linearGradient>
<linearGradient id="paint9_linear_1_172" x1="-3.4072" y1="42.926" x2="20.1719" y2="67.4896" gradientUnits="userSpaceOnUse">
<stop offset="0.270833" stop-color="#A3A3A3"/>
<stop offset="0.412103" stop-color="#CCCCCC"/>
<stop offset="0.551716" stop-color="white"/>
<stop offset="0.677083" stop-color="#CCCCCC"/>
<stop offset="0.833333" stop-color="#A3A3A3"/>
</linearGradient>
<linearGradient id="paint10_linear_1_172" x1="-6.39717" y1="33.8023" x2="39.6671" y2="53.8567" gradientUnits="userSpaceOnUse">
<stop offset="0.270833" stop-color="#A3A3A3"/>
<stop offset="0.412103" stop-color="#CCCCCC"/>
<stop offset="0.551716" stop-color="white"/>
<stop offset="0.677083" stop-color="#CCCCCC"/>
<stop offset="0.833333" stop-color="#A3A3A3"/>
</linearGradient>
<linearGradient id="paint11_linear_1_172" x1="41.7799" y1="20.8761" x2="45.425" y2="21.0454" gradientUnits="userSpaceOnUse">
<stop offset="0.270833" stop-color="#A3A3A3"/>
<stop offset="0.412103" stop-color="#CCCCCC"/>
<stop offset="0.551716" stop-color="white"/>
<stop offset="0.677083" stop-color="#CCCCCC"/>
<stop offset="0.833333" stop-color="#A3A3A3"/>
</linearGradient>
</defs>
</svg>
