<svg width="61" height="29" viewBox="0 0 61 29" fill="none" xmlns="http://www.w3.org/2000/svg">
<path d="M32.5216 20.8548C31.5793 21.0401 30.6228 21.1796 29.6596 21.273C30.6292 21.2404 31.5972 21.1602 32.5499 21.0333C34.7818 20.7386 37.0176 20.1794 39.193 19.3727C43.2771 17.8614 47.2312 15.4646 50.9452 12.2477C52.6564 10.7666 54.3067 9.11963 55.85 7.35113C56.6168 6.47296 57.355 5.56509 58.045 4.65389C58.4048 4.17979 58.7505 3.70521 59.0734 3.24228C59.4323 2.72589 59.7362 2.27416 60.0522 1.75536C60.3829 1.21173 60.2098 0.499353 59.6647 0.168733C59.4833 0.0583539 59.2762 0 59.0666 0C58.6596 0 58.2901 0.207634 58.0781 0.55481C58.0649 0.576204 58.0542 0.596141 58.044 0.614619C58.0411 0.619967 58.0387 0.625318 58.0348 0.630667C57.8349 1.01383 57.5699 1.47626 57.231 2.03443C56.9533 2.49103 56.6524 2.96366 56.3382 3.43683C55.7295 4.35342 55.0759 5.26806 54.3947 6.15399C53.0152 7.95124 51.523 9.63945 49.9606 11.172C46.5505 14.518 42.8525 17.0864 38.967 18.8072C36.8771 19.7369 34.7089 20.4244 32.5218 20.8548L32.5216 20.8548Z" fill="url(#paint0_linear_1_188)"/>
<path d="M39.3841 19.8863C37.1965 20.6968 34.9242 21.2716 32.6223 21.576C31.3007 21.7515 29.9713 21.8381 28.6438 21.8381C27.6582 21.8381 26.6755 21.7909 25.6981 21.6961C21.102 21.2589 16.6898 19.7992 12.6376 17.754C16.8106 19.5449 21.2647 20.7027 25.7529 20.8476C26.0889 20.8593 26.4249 20.8641 26.7609 20.8641C28.6641 20.8641 30.5614 20.6813 32.4155 20.3171C34.5983 19.8882 36.7223 19.206 38.7446 18.3089C42.7007 16.5564 46.2528 13.9982 49.3517 11.0005C47.9075 10.1423 44.4789 8.8974 39.0412 11.5923C35.794 13.2018 31.4421 14.202 27.0789 14.5861C27.5939 14.9387 28.1307 15.2596 28.6943 15.5343C29.3755 15.864 30.0865 16.1402 30.8275 16.3323C31.5671 16.5302 32.3325 16.6576 33.1187 16.6649C32.3519 16.8676 31.5389 16.8676 30.7429 16.7908C29.9454 16.6994 29.1548 16.5078 28.4007 16.2156C27.4199 15.8412 26.5003 15.3165 25.6611 14.6878C24.1707 14.7744 22.6945 14.7875 21.2736 14.7282C21.5328 14.9917 21.8056 15.2431 22.0935 15.479C22.6813 15.9691 23.3232 16.4067 24.0336 16.7437C23.2522 16.6056 22.5146 16.2642 21.8246 15.8592C21.2688 15.5212 20.7485 15.1201 20.2711 14.6727C17.215 14.4671 14.4802 13.9137 12.5377 13.0044C6.63759 10.244 2.80148 6.28934 0.220001 10.4745C0.220001 10.4745 5.32955 21.0928 14.3062 25.5927C14.9369 25.2066 15.5486 24.7685 16.1137 24.2311C15.98 24.6118 15.7733 24.9653 15.5467 25.3018C15.396 25.5274 15.2282 25.7419 15.0502 25.9481C16.97 26.8175 18.9329 27.4413 20.9033 27.8484C21.9342 27.6826 22.945 27.4244 23.9215 27.0441C24.61 26.7777 25.281 26.4504 25.9277 26.0604C26.5744 25.6685 27.2021 25.2212 27.7799 24.6712C27.6461 25.052 27.4395 25.4055 27.2139 25.742C26.9873 26.0814 26.7237 26.396 26.4422 26.694C25.8742 27.2877 25.212 27.7973 24.4957 28.2184C24.4218 28.2617 24.3449 28.3001 24.2691 28.3419C27.9976 28.6682 31.6713 28.2792 35.0371 27.3855C35.7257 26.9605 36.3827 26.4835 36.9939 25.9452C37.5496 25.4585 38.0665 24.9207 38.5402 24.3313C39.0128 23.7401 39.448 23.105 39.802 22.3897C39.8069 22.7928 39.7344 23.1954 39.6381 23.5907C39.5419 23.9866 39.4033 24.3726 39.2409 24.75C39.0016 25.297 38.7002 25.8192 38.3501 26.3093C41.7684 24.9829 44.7103 23.1336 46.8434 21.036C46.8453 20.8541 46.8439 20.6727 46.8385 20.4894C46.8132 19.7338 46.7296 18.9684 46.5331 18.1947C46.7996 18.4982 47.0063 18.8502 47.1896 19.2125C47.3564 19.5407 47.4906 19.885 47.6048 20.238C49.5391 18.0713 50.6079 15.6881 50.481 13.3614C47.1555 16.1039 43.4279 18.3912 39.3838 19.8869L39.3841 19.8863Z" fill="url(#paint1_linear_1_188)"/>
<defs>
<linearGradient id="paint0_linear_1_188" x1="25.1658" y1="-0.525067" x2="61.9233" y2="3.56184" gradientUnits="userSpaceOnUse">
<stop offset="0.270833" stop-color="#A3A3A3"/>
<stop offset="0.412103" stop-color="#CCCCCC"/>
<stop offset="0.551716" stop-color="white"/>
<stop offset="0.677083" stop-color="#CCCCCC"/>
<stop offset="0.833333" stop-color="#A3A3A3"/>
</linearGradient>
<linearGradient id="paint1_linear_1_188" x1="-7.17207" y1="8.16191" x2="51.766" y2="19.7403" gradientUnits="userSpaceOnUse">
<stop offset="0.270833" stop-color="#A3A3A3"/>
<stop offset="0.412103" stop-color="#CCCCCC"/>
<stop offset="0.551716" stop-color="white"/>
<stop offset="0.677083" stop-color="#CCCCCC"/>
<stop offset="0.833333" stop-color="#A3A3A3"/>
</linearGradient>
</defs>
</svg>
