<svg width="66" height="66" viewBox="0 0 66 66" fill="none" xmlns="http://www.w3.org/2000/svg">
<path d="M8.76294 19.8646C9.44002 19.1875 10.2417 18.849 11.1679 18.849C12.0924 18.849 12.8931 19.1875 13.5702 19.8646L33.4088 39.7031L53.315 19.7969C53.947 19.1649 54.7369 18.849 55.6848 18.849C56.6327 18.849 57.4452 19.1875 58.1223 19.8646C58.7994 20.5417 59.1379 21.3433 59.1379 22.2696C59.1379 23.194 58.7994 23.9948 58.1223 24.6719L35.3046 47.4219C35.0338 47.6927 34.7404 47.885 34.4244 47.9987C34.1084 48.1107 33.7699 48.1667 33.4088 48.1667C33.0477 48.1667 32.7091 48.1107 32.3931 47.9987C32.0772 47.885 31.7838 47.6927 31.5129 47.4219L8.69523 24.6042C8.06329 23.9722 7.74731 23.194 7.74731 22.2696C7.74731 21.3433 8.08586 20.5417 8.76294 19.8646Z" fill="url(#paint0_linear_1_140)"/>
<defs>
<linearGradient id="paint0_linear_1_140" x1="60.4064" y1="14.538" x2="58.8332" y2="50.1672" gradientUnits="userSpaceOnUse">
<stop offset="0.270833" stop-color="#A3A3A3"/>
<stop offset="0.412103" stop-color="#CCCCCC"/>
<stop offset="0.551716" stop-color="white"/>
<stop offset="0.677083" stop-color="#CCCCCC"/>
<stop offset="0.833333" stop-color="#A3A3A3"/>
</linearGradient>
</defs>
</svg>
