<svg width="96" height="96" viewBox="0 0 96 96" fill="none" xmlns="http://www.w3.org/2000/svg">
<path d="M80.8212 42.0775C79.5404 42.0775 78.3279 42.2244 77.2098 42.4826C76.2426 40.6895 74.9864 39.0024 73.4617 37.5201L73.4611 37.5194C73.0068 37.0788 72.5123 36.6539 71.9262 36.2004C67.7997 32.7378 58.5687 30.5001 48.4084 30.5001C38.2481 30.5001 29.0175 32.7378 24.9133 36.1832C24.304 36.6545 23.8095 37.0794 23.3552 37.5207C21.8306 39.0029 20.5745 40.6901 19.6072 42.4832C18.489 42.225 17.2765 42.0781 15.9958 42.0781C10.3392 42.0781 5.90881 44.8173 5.90881 48.3146C5.90881 51.8119 10.3392 54.551 15.9958 54.551C16.6065 54.551 17.1994 54.5135 17.7774 54.452C18.6046 57.8953 20.6305 60.7486 23.5869 62.5511C25.7667 63.8797 28.333 64.5559 31.0242 64.5559C32.7783 64.5559 34.5843 64.2684 36.3692 63.6878C38.1049 63.1235 39.8263 62.0545 41.4861 60.5115C45.7567 56.5401 51.0607 56.5401 55.3313 60.5115C56.9912 62.0552 58.7126 63.1236 60.4476 63.6878C64.9709 65.1598 69.6321 64.7452 73.2307 62.5511C76.187 60.7484 78.2137 57.8953 79.0403 54.452C79.6181 54.5135 80.2111 54.5511 80.8218 54.5511C86.4784 54.5511 90.9088 51.812 90.9088 48.3146C90.9095 44.8173 86.4791 42.0775 80.8225 42.0775L80.8212 42.0775ZM7.67101 48.314C7.67101 45.8891 11.4826 43.8398 15.995 43.8398C16.9793 43.8398 17.9268 43.9423 18.8119 44.1199C17.6241 46.9103 17.1384 49.8802 17.4629 52.7109C16.984 52.7587 16.495 52.7881 15.995 52.7881C11.4825 52.7881 7.67101 50.7395 7.67101 48.314ZM80.8212 52.7881C80.3212 52.7881 79.8321 52.7594 79.3533 52.7109C79.677 49.8802 79.1914 46.9103 78.0042 44.1199C78.8895 43.9423 79.8368 43.8398 80.8211 43.8398C85.3329 43.8398 89.1451 45.8891 89.1451 48.314C89.1444 50.7395 85.3329 52.7881 80.8212 52.7881Z" fill="url(#paint0_linear_1_131)"/>
<defs>
<linearGradient id="paint0_linear_1_131" x1="-6.58993" y1="29.6595" x2="93.1871" y2="48.9337" gradientUnits="userSpaceOnUse">
<stop offset="0.270833" stop-color="#A3A3A3"/>
<stop offset="0.412103" stop-color="#CCCCCC"/>
<stop offset="0.551716" stop-color="white"/>
<stop offset="0.677083" stop-color="#CCCCCC"/>
<stop offset="0.833333" stop-color="#A3A3A3"/>
</linearGradient>
</defs>
</svg>
