<svg width="96" height="96" viewBox="0 0 96 96" fill="none" xmlns="http://www.w3.org/2000/svg">
<path d="M78.9648 36.7292V62.2809C77.6288 60.9072 75.7934 60.133 73.8768 60.1339H70.824V30.0641C70.8272 29.911 70.8204 29.7584 70.8036 29.6062H71.8416C73.7301 29.6084 75.5409 30.3594 76.876 31.695C78.2116 33.0301 78.9625 34.8409 78.9648 36.7294V36.7292ZM26.0496 54.0284H52.5072V25.5356H58.6128V54.0284H66.7536C67.4687 54.0293 68.1706 54.2188 68.7888 54.5781V27.5704C68.7893 26.4906 68.3604 25.4552 67.5968 24.692C66.8336 23.9284 65.7982 23.4995 64.7184 23.5H28.0848C25.3873 23.5045 22.8014 24.578 20.8944 26.4856C18.9869 28.3926 17.9133 30.9785 17.9088 33.676V58.1089C19.8268 55.5408 22.8442 54.0284 26.0496 54.0284ZM73.8768 62.1692H26.0496C25.3223 62.1692 24.6504 62.5572 24.287 63.1868C23.9236 63.8165 23.9236 64.5924 24.287 65.222C24.6504 65.8516 25.3223 66.2396 26.0496 66.2396H73.8768C74.4388 66.2396 74.8944 66.6953 74.8944 67.2572C74.8944 67.8192 74.4388 68.2748 73.8768 68.2748H26.0496C24.5954 68.2748 23.2516 67.4989 22.5244 66.2396C21.7976 64.9803 21.7976 63.4285 22.5244 62.1692C23.2517 60.9099 24.5956 60.134 26.0496 60.134H66.7536C67.4809 60.134 68.1528 59.7461 68.5162 59.1164C68.8797 58.4868 68.8797 57.7108 68.5162 57.0812C68.1528 56.4516 67.4809 56.0636 66.7536 56.0636H26.0496C23.1413 56.0636 20.4537 57.6155 18.9996 60.134C17.5454 62.6525 17.5454 65.7563 18.9996 68.2748C20.4537 70.7933 23.1413 72.3452 26.0496 72.3452H73.8768C75.6944 72.3452 77.3744 71.3753 78.283 69.8012C79.192 68.2271 79.192 66.2873 78.283 64.7132C77.3744 63.1391 75.6944 62.1692 73.8768 62.1692Z" fill="url(#paint0_linear_1_137)"/>
<defs>
<linearGradient id="paint0_linear_1_137" x1="8.93089" y1="22.2944" x2="82.5864" y2="29.4201" gradientUnits="userSpaceOnUse">
<stop offset="0.270833" stop-color="#A3A3A3"/>
<stop offset="0.412103" stop-color="#CCCCCC"/>
<stop offset="0.551716" stop-color="white"/>
<stop offset="0.677083" stop-color="#CCCCCC"/>
<stop offset="0.833333" stop-color="#A3A3A3"/>
</linearGradient>
</defs>
</svg>
