<svg width="96" height="96" viewBox="0 0 96 96" fill="none" xmlns="http://www.w3.org/2000/svg">
<path d="M74.2328 21.8453V49.5918V63.5121V70.4708C74.2328 72.7922 74.4677 74.9507 73.0617 77.1287C71.7664 79.1347 69.5839 80.3823 67.1971 80.4783C66.0542 80.5236 64.9124 80.4839 63.7706 80.4839H60.3133H46.4858H32.6131C30.1253 80.4839 28.2872 80.7429 26.0186 79.1363C24.0744 77.761 22.9236 75.5362 22.9236 73.1539V45.4087V31.4884V24.5297C22.9236 22.2083 22.6886 20.0498 24.0946 17.8708C25.3899 15.8648 27.5735 14.6177 29.9587 14.5217C31.1026 14.4764 32.2434 14.5161 33.3852 14.5161H36.8425H50.67H64.5427C67.0305 14.5161 68.8681 14.2571 71.1382 15.8632C73.0819 17.239 74.2328 19.4638 74.2328 21.8456V21.8453ZM33.4288 22.9857V22.7311V22.6044C33.4288 22.543 33.3709 22.5792 33.3372 22.5797C33.1747 22.5863 33.0178 22.6079 32.8603 22.6451C32.5314 22.7236 32.2482 22.8559 31.977 23.0571C31.3855 23.4932 31.1023 23.9751 31.0072 24.7039C30.9957 24.7869 30.9901 24.8699 30.9871 24.9539C30.9836 25.0857 31.1063 25.0208 31.1828 25.0208C31.2276 25.0208 31.3925 25.0586 31.394 24.9761C31.3956 24.9062 31.4006 24.8378 31.4091 24.7683C31.4519 24.4278 31.5611 24.1416 31.7567 23.8604C32.1375 23.3121 32.7618 22.9857 33.4288 22.9857ZM33.4288 40.0879V39.8334V39.7066C33.4288 39.6447 33.3709 39.6804 33.3372 39.6819C33.1747 39.6885 33.0178 39.7091 32.8603 39.7473C32.5314 39.8258 32.2482 39.9581 31.977 40.1593C31.3855 40.5954 31.1023 41.0773 31.0072 41.8062C30.9957 41.8892 30.9901 41.9727 30.9871 42.0562C30.9836 42.1874 31.1063 42.1231 31.1828 42.1231C31.2276 42.1231 31.3925 42.1608 31.394 42.0783C31.3956 42.0084 31.4006 41.939 31.4091 41.87C31.4519 41.5305 31.5611 41.2433 31.7567 40.9621C32.1375 40.4148 32.7618 40.0879 33.4288 40.0879ZM33.4288 37.8077C32.7618 37.8077 32.1365 37.4802 31.7557 36.9325C31.5601 36.6503 31.4509 36.364 31.4087 36.024C31.4001 35.9546 31.3941 35.8857 31.3936 35.8158C31.3921 35.7328 31.2256 35.772 31.1808 35.772C31.1048 35.772 30.9831 35.7101 30.9866 35.8404C30.9887 35.9249 30.9952 36.0079 31.0068 36.0914C31.1028 36.8193 31.386 37.3007 31.9766 37.7367C32.2477 37.9374 32.5319 38.0692 32.8599 38.1477C33.0173 38.1859 33.1748 38.2071 33.3367 38.2131C33.3714 38.2146 33.4293 38.2508 33.4293 38.1894V38.0627C33.4288 37.9772 33.4288 37.8932 33.4288 37.8077ZM33.4288 57.1905V56.936V56.8092C33.4288 56.7473 33.3709 56.783 33.3372 56.7856C33.1747 56.7921 33.0178 56.8137 32.8603 56.8504C32.5314 56.9299 32.2482 57.0617 31.977 57.2614C31.3855 57.6985 31.1023 58.1799 31.0072 58.9093C30.9957 58.9913 30.9901 59.0753 30.9871 59.1593C30.9836 59.2911 31.1063 59.2262 31.1828 59.2262C31.2276 59.2262 31.3925 59.2644 31.394 59.1814C31.3956 59.1115 31.4006 59.0421 31.4091 58.9732C31.4519 58.6326 31.5611 58.3474 31.7567 58.0652C32.1375 57.518 32.7618 57.1905 33.4288 57.1905ZM33.4288 54.9103C32.7618 54.9103 32.1365 54.5839 31.7557 54.0351C31.5601 53.7529 31.4509 53.4667 31.4087 53.1266C31.4001 53.0572 31.3941 52.9888 31.3936 52.9189C31.3921 52.8359 31.2256 52.8741 31.1808 52.8741C31.1048 52.8741 30.9831 52.8112 30.9866 52.9425C30.9887 53.026 30.9952 53.109 31.0068 53.1925C31.1028 53.9209 31.386 54.4033 31.9766 54.8389C32.2477 55.0401 32.5319 55.1719 32.8599 55.2498C33.0173 55.2881 33.1748 55.3097 33.3367 55.3152C33.3714 55.3167 33.4293 55.3529 33.4293 55.2916V55.1638C33.4288 55.0798 33.4288 54.9953 33.4288 54.9103ZM33.4288 72.0138C32.7618 72.0138 32.1365 71.6864 31.7557 71.1376C31.5601 70.8564 31.4509 70.5702 31.4087 70.2291C31.4001 70.1597 31.3941 70.0913 31.3936 70.0214C31.3921 69.9384 31.2256 69.9766 31.1808 69.9766C31.1048 69.9766 30.9831 69.9147 30.9866 70.045C30.9887 70.1285 30.9952 70.2115 31.0068 70.296C31.1028 71.0244 31.386 71.5063 31.9766 71.9413C32.2477 72.1425 32.5319 72.2743 32.8599 72.3533C33.0173 72.391 33.1748 72.4127 33.3367 72.4187C33.3714 72.4192 33.4293 72.4554 33.4293 72.3951V72.2673C33.4288 72.1828 33.4288 72.0983 33.4288 72.0138ZM63.725 72.0138V72.2684V72.3951C63.725 72.4565 63.7828 72.4203 63.8175 72.4198C63.98 72.4132 64.1364 72.3916 64.2934 72.3544C64.6223 72.2759 64.9065 72.1436 65.1777 71.9424C65.7692 71.5068 66.0529 71.0244 66.1485 70.2961C66.1601 70.2126 66.1656 70.1301 66.1681 70.0461C66.1726 69.9133 66.0489 69.9776 65.9724 69.9776C65.9277 69.9776 65.7627 69.9409 65.7612 70.0224C65.7592 70.0928 65.7541 70.1618 65.7461 70.2307C65.7028 70.5712 65.5932 70.8574 65.3985 71.1391C65.0182 71.6874 64.3929 72.0138 63.725 72.0138ZM63.725 54.9103V55.1648V55.2926C63.725 55.354 63.7828 55.3178 63.8175 55.3163C63.98 55.3107 64.1364 55.2891 64.2934 55.2509C64.6223 55.1729 64.9065 55.0411 65.1777 54.8399C65.7692 54.4038 66.0529 53.9214 66.1485 53.193C66.1601 53.11 66.1656 53.0265 66.1681 52.942C66.1726 52.8102 66.0489 52.8751 65.9724 52.8751C65.9277 52.8751 65.7627 52.8369 65.7612 52.9199C65.7592 52.9898 65.7541 53.0592 65.7461 53.1282C65.7028 53.4677 65.5932 53.7549 65.3985 54.0361C65.0182 54.5839 64.3929 54.9103 63.725 54.9103ZM63.725 57.1905C64.393 57.1905 65.0177 57.518 65.398 58.0667C65.5926 58.3489 65.7028 58.6352 65.745 58.9747C65.7536 59.0441 65.7596 59.113 65.7601 59.1839C65.7616 59.2654 65.9281 59.2272 65.9719 59.2272C66.0484 59.2272 66.1701 59.2901 66.1666 59.1593C66.1646 59.0748 66.158 58.9918 66.1469 58.9083C66.0509 58.1804 65.7677 57.699 65.1761 57.2619C64.9045 57.0622 64.6208 56.9305 64.2918 56.851C64.1344 56.8143 63.9774 56.7926 63.8165 56.7861C63.7813 56.7841 63.7234 56.7479 63.7234 56.8097V56.9365C63.7249 57.021 63.725 57.106 63.725 57.1905ZM63.725 37.8077V38.0622V38.189C63.725 38.2504 63.7828 38.2142 63.8175 38.2126C63.98 38.2061 64.1364 38.1855 64.2934 38.1473C64.6223 38.0688 64.9065 37.9365 65.1777 37.7363C65.7692 37.3002 66.0529 36.8183 66.1485 36.0894C66.1601 36.0059 66.1656 35.9229 66.1681 35.8394C66.1726 35.7076 66.0489 35.7715 65.9724 35.7715C65.9277 35.7715 65.7627 35.7338 65.7612 35.8163C65.7592 35.8862 65.7541 35.9556 65.7461 36.0255C65.7028 36.3651 65.5932 36.6513 65.3985 36.9335C65.0182 37.4808 64.3929 37.8077 63.725 37.8077ZM63.725 40.0879C64.393 40.0879 65.0177 40.4153 65.398 40.9631C65.5926 41.2443 65.7028 41.5315 65.745 41.8716C65.7536 41.941 65.7596 42.0099 65.7601 42.0793C65.7616 42.1623 65.9281 42.1241 65.9719 42.1241C66.0484 42.1241 66.1701 42.186 66.1666 42.0557C66.1646 41.9722 66.158 41.8892 66.1469 41.8057C66.0509 41.0778 65.7677 40.5954 65.1761 40.1593C64.9045 39.9581 64.6208 39.8263 64.2918 39.7474C64.1344 39.7091 63.9774 39.688 63.8165 39.682C63.7813 39.6805 63.7234 39.6443 63.7234 39.7066V39.8334C63.7249 39.9189 63.725 40.0039 63.725 40.0879ZM63.725 22.9857C64.393 22.9857 65.0177 23.3131 65.398 23.8609C65.5926 24.1421 65.7028 24.4293 65.745 24.7694C65.7536 24.8388 65.7596 24.9072 65.7601 24.9776C65.7616 25.0606 65.9281 25.0214 65.9719 25.0214C66.0484 25.0214 66.1701 25.0843 66.1666 24.9535C66.1646 24.87 66.158 24.786 66.1469 24.7035C66.0509 23.9746 65.7677 23.4932 65.1761 23.0571C64.9045 22.8559 64.6208 22.7246 64.2918 22.6452C64.1344 22.6074 63.9774 22.5858 63.8165 22.5798C63.7813 22.5793 63.7234 22.542 63.7234 22.6034V22.7312C63.7249 22.8162 63.725 22.9011 63.725 22.9857ZM51.7537 72.0143C51.0857 72.0143 50.4609 71.6869 50.0807 71.1381C49.886 70.8569 49.7758 70.5707 49.7336 70.2296C49.724 70.1602 49.719 70.0918 49.7185 70.0219C49.7165 69.9389 49.5505 69.9771 49.5052 69.9771C49.4293 69.9771 49.3075 69.9152 49.311 70.0455C49.3131 70.129 49.3196 70.212 49.3307 70.2965C49.4267 71.0249 49.7099 71.5068 50.3005 71.9419C50.5731 72.1431 50.8563 72.2748 51.1848 72.3538C51.3427 72.3916 51.4997 72.4132 51.6606 72.4192C51.6953 72.4197 51.7537 72.4559 51.7537 72.3956V72.2678L51.7537 72.0143ZM45.4006 72.0143V72.2689V72.3956C45.4006 72.457 45.4589 72.4208 45.4931 72.4203C45.6546 72.4137 45.812 72.3921 45.97 72.3549C46.2989 72.2764 46.5821 72.1441 46.8543 71.9429C47.4448 71.5073 47.729 71.0249 47.8251 70.2966C47.8362 70.2131 47.8422 70.1306 47.8447 70.0466C47.8482 69.9138 47.725 69.9782 47.649 69.9782C47.6043 69.9782 47.4393 69.9414 47.4378 70.0229C47.4363 70.0934 47.4312 70.1623 47.4227 70.2312C47.3799 70.5717 47.2708 70.8579 47.0751 71.1396C46.6928 71.6879 46.0686 72.0143 45.4006 72.0143ZM51.7537 57.1914V56.9369V56.8101C51.7537 56.7482 51.6953 56.7839 51.6606 56.7865C51.4991 56.793 51.3427 56.8146 51.1848 56.8513C50.8568 56.9308 50.5726 57.0626 50.3004 57.2623C49.7099 57.6994 49.4257 58.1808 49.3296 58.9102C49.3186 58.9922 49.313 59.0762 49.311 59.1602C49.3065 59.292 49.4302 59.2271 49.5067 59.2271C49.5514 59.2271 49.7164 59.2653 49.7184 59.1823C49.7189 59.1124 49.724 59.043 49.7335 58.9741C49.7763 58.6335 49.8865 58.3483 50.0811 58.0661C50.4614 57.5189 51.0857 57.1914 51.7537 57.1914ZM51.7537 54.9112C51.0857 54.9112 50.4609 54.5848 50.0807 54.036C49.886 53.7538 49.7758 53.4676 49.7336 53.1275C49.724 53.0581 49.719 52.9897 49.7185 52.9198C49.7165 52.8368 49.5505 52.875 49.5052 52.875C49.4293 52.875 49.3075 52.8121 49.311 52.9434C49.3131 53.0269 49.3196 53.1099 49.3307 53.1934C49.4267 53.9218 49.7099 54.4042 50.3005 54.8398C50.5731 55.041 50.8563 55.1728 51.1848 55.2507C51.3427 55.289 51.4997 55.3106 51.6606 55.3161C51.6953 55.3176 51.7537 55.3538 51.7537 55.2925V55.1647L51.7537 54.9112ZM45.4006 54.9112V55.1658V55.2935C45.4006 55.3549 45.4589 55.3187 45.4931 55.3172C45.6546 55.3116 45.812 55.29 45.97 55.2518C46.2989 55.1738 46.5821 55.042 46.8543 54.8408C47.4448 54.4047 47.729 53.9223 47.8251 53.1939C47.8362 53.1109 47.8422 53.0274 47.8447 52.9429C47.8482 52.8112 47.725 52.876 47.649 52.876C47.6043 52.876 47.4393 52.8378 47.4378 52.9208C47.4363 52.9907 47.4312 53.0601 47.4227 53.1291C47.3799 53.4686 47.2708 53.7558 47.0751 54.037C46.6928 54.5848 46.0686 54.9112 45.4006 54.9112ZM45.4006 57.1914C46.0686 57.1914 46.6928 57.5189 47.0736 58.0676C47.2692 58.3498 47.3784 58.6361 47.4206 58.9756C47.4292 59.045 47.4342 59.1139 47.4357 59.1848C47.4372 59.2663 47.6042 59.2281 47.6475 59.2281C47.724 59.2281 47.8457 59.291 47.8422 59.1602C47.8402 59.0757 47.8336 58.9927 47.8226 58.9092C47.7265 58.1813 47.4433 57.6999 46.8527 57.2628C46.5811 57.0631 46.2974 56.9314 45.9684 56.8519C45.811 56.8152 45.6536 56.7935 45.4916 56.787C45.4579 56.785 45.399 56.7488 45.399 56.8106V56.9374C45.4005 57.0219 45.4006 57.1069 45.4006 57.1914ZM51.7537 40.0879V39.8334V39.7066C51.7537 39.6447 51.6953 39.6804 51.6606 39.6819C51.4991 39.6885 51.3427 39.7091 51.1848 39.7473C50.8568 39.8258 50.5726 39.9581 50.3004 40.1593C49.7099 40.5954 49.4257 41.0773 49.3296 41.8062C49.3186 41.8892 49.313 41.9727 49.311 42.0562C49.3065 42.1874 49.4302 42.1231 49.5067 42.1231C49.5514 42.1231 49.7164 42.1608 49.7184 42.0783C49.7189 42.0084 49.724 41.939 49.7335 41.87C49.7763 41.5305 49.8865 41.2433 50.0811 40.9621C50.4614 40.4148 51.0857 40.0879 51.7537 40.0879ZM51.7537 37.8077C51.0857 37.8077 50.4609 37.4802 50.0807 36.9325C49.886 36.6503 49.7758 36.364 49.7336 36.024C49.724 35.9546 49.719 35.8857 49.7185 35.8158C49.7165 35.7328 49.5505 35.772 49.5052 35.772C49.4293 35.772 49.3075 35.7101 49.311 35.8404C49.3131 35.9249 49.3196 36.0079 49.3307 36.0914C49.4267 36.8193 49.7099 37.3007 50.3005 37.7367C50.5731 37.9374 50.8563 38.0692 51.1848 38.1477C51.3427 38.1859 51.4997 38.2071 51.6606 38.2131C51.6953 38.2146 51.7537 38.2508 51.7537 38.1894V38.0627L51.7537 37.8077ZM45.4006 37.8077V38.0622V38.189C45.4006 38.2504 45.4589 38.2142 45.4931 38.2126C45.6546 38.2061 45.812 38.1855 45.97 38.1473C46.2989 38.0688 46.5821 37.9365 46.8543 37.7363C47.4448 37.3002 47.729 36.8183 47.8251 36.0894C47.8362 36.0059 47.8422 35.9229 47.8447 35.8394C47.8482 35.7076 47.725 35.7715 47.649 35.7715C47.6043 35.7715 47.4393 35.7338 47.4378 35.8163C47.4363 35.8862 47.4312 35.9556 47.4227 36.0255C47.3799 36.3651 47.2708 36.6513 47.0751 36.9335C46.6928 37.4808 46.0686 37.8077 45.4006 37.8077ZM45.4006 40.0879C46.0686 40.0879 46.6928 40.4153 47.0736 40.9631C47.2692 41.2443 47.3784 41.5315 47.4206 41.8716C47.4292 41.941 47.4342 42.0099 47.4357 42.0793C47.4372 42.1623 47.6042 42.1241 47.6475 42.1241C47.724 42.1241 47.8457 42.186 47.8422 42.0557C47.8402 41.9722 47.8336 41.8892 47.8226 41.8057C47.7265 41.0778 47.4433 40.5954 46.8527 40.1593C46.5811 39.9581 46.2974 39.8263 45.9684 39.7474C45.811 39.7091 45.6536 39.688 45.4916 39.682C45.4579 39.6805 45.399 39.6443 45.399 39.7066V39.8334C45.4005 39.9189 45.4006 40.0039 45.4006 40.0879ZM45.4006 22.9857C46.0686 22.9857 46.6928 23.3131 47.0736 23.8609C47.2692 24.1421 47.3784 24.4293 47.4206 24.7694C47.4292 24.8388 47.4342 24.9072 47.4357 24.9776C47.4372 25.0606 47.6042 25.0214 47.6475 25.0214C47.724 25.0214 47.8457 25.0843 47.8422 24.9535C47.8402 24.87 47.8336 24.786 47.8226 24.7035C47.7265 23.9746 47.4433 23.4932 46.8527 23.0571C46.5811 22.8559 46.2974 22.7246 45.9684 22.6452C45.811 22.6074 45.6536 22.5858 45.4916 22.5798C45.4579 22.5793 45.399 22.542 45.399 22.6034V22.7312C45.4005 22.8162 45.4006 22.9011 45.4006 22.9857ZM51.7537 22.9857V22.7311V22.6044C51.7537 22.543 51.6953 22.5792 51.6606 22.5797C51.4991 22.5863 51.3427 22.6079 51.1848 22.6451C50.8568 22.7236 50.5726 22.8559 50.3004 23.0571C49.7099 23.4932 49.4257 23.9751 49.3296 24.7039C49.3186 24.7869 49.313 24.8699 49.311 24.9539C49.3065 25.0857 49.4302 25.0208 49.5067 25.0208C49.5514 25.0208 49.7164 25.0586 49.7184 24.9761C49.7189 24.9062 49.724 24.8378 49.7335 24.7683C49.7763 24.4278 49.8865 24.1416 50.0811 23.8604C50.4614 23.3121 51.0857 22.9857 51.7537 22.9857ZM49.31 72.42H47.8447V73.8863H49.31V72.42ZM49.31 55.3178H47.8447V56.7841H49.31V55.3178ZM29.519 38.2155V39.6819H30.9853V38.2155H29.519ZM49.31 38.2155H47.8447V39.6819H49.31V38.2155ZM67.6342 55.3178H66.1689V56.7841H67.6342V55.3178ZM29.519 55.3178V56.7841H30.9853V55.3178H29.519ZM67.6342 38.2155H66.1689V39.6819H67.6342V38.2155ZM49.31 21.1133H47.8447V22.5796H49.31V21.1133ZM29.519 21.1133V22.5796H30.9853V21.1133H29.519ZM67.6342 21.1133H66.1689V22.5796H67.6342V21.1133ZM67.6342 73.8867V72.4204H66.1689V73.8867H67.6342ZM29.519 73.8867H30.9853V72.4204H29.519V73.8867Z" fill="url(#paint0_linear_1_134)"/>
<defs>
<linearGradient id="paint0_linear_1_134" x1="15.3598" y1="12.871" x2="77.6466" y2="16.6208" gradientUnits="userSpaceOnUse">
<stop offset="0.270833" stop-color="#A3A3A3"/>
<stop offset="0.412103" stop-color="#CCCCCC"/>
<stop offset="0.551716" stop-color="white"/>
<stop offset="0.677083" stop-color="#CCCCCC"/>
<stop offset="0.833333" stop-color="#A3A3A3"/>
</linearGradient>
</defs>
</svg>
