<svg width="96" height="96" viewBox="0 0 96 96" fill="none" xmlns="http://www.w3.org/2000/svg">
<path d="M48.0974 29.5C35.2347 29.5 18.1506 32.263 9.86823 43.7346C9.71973 43.9475 9.48777 44.0995 9.23461 44.1497C7.04589 44.608 5.97815 45.9671 5.90881 46.767C5.9668 48.2435 7.9985 48.4175 9.04434 48.4267C9.38449 48.4267 9.71899 48.6148 9.89932 48.9054C15.5885 57.8392 30.2621 63.1082 50.1253 63.1082C50.353 63.1082 50.5807 63.1881 50.7589 63.3316C53.9171 66.0995 58.3724 67.4466 60.2293 63.6831C60.3587 63.4165 60.609 63.2121 60.8947 63.1407C73.8889 60.0016 79.5703 58.0681 87.4689 49.8C87.715 49.5391 88.1046 49.4253 88.4504 49.5129C90.1031 49.945 90.8533 49.3319 91.016 48.7789C91.3866 47.2196 89.7234 46.6277 88.7672 46.1935C88.5445 46.0917 88.3606 45.9071 88.2602 45.683C80.1837 31.3911 62.2943 29.5687 48.0993 29.5015L48.0974 29.5ZM17.3106 40.7341C33.5478 42.7793 38.0373 43.9497 52.2775 55.224C53.6006 56.1391 55.3233 55.7919 57.1231 54.2029C65.2641 48.0506 70.5834 44.845 80.846 42.7765C81.3686 42.6676 81.9421 43.048 82.0496 43.5741C82.157 44.1003 81.7801 44.6788 81.2575 44.7869C71.3069 46.7924 66.4452 49.7017 58.4525 55.7339C55.766 58.04 53.0434 58.3845 51.0096 56.8513C36.8704 45.6568 33.2519 44.7842 17.0565 42.7447C16.5261 42.7029 16.0806 42.1782 16.1223 41.6436C16.1739 40.9096 16.7375 40.7123 17.3104 40.7335L17.3106 40.7341ZM84.1524 48.8885C84.1524 49.363 83.7811 49.8099 83.3179 49.8941C79.3607 50.8912 78.9222 51.3841 76.8247 54.5536C76.6437 54.8442 76.3099 55.0309 75.9698 55.0323C70.0012 55.0323 68.4201 55.8632 64.409 58.8942C63.9939 59.2867 63.2429 59.2188 62.9028 58.7591C62.5626 58.2994 62.714 57.5548 63.2054 57.2663C67.1819 54.2614 69.6923 53.0905 75.4947 53.0212C77.452 50.1663 78.8969 48.9005 82.811 47.9147C83.5592 47.728 84.1326 48.2931 84.1524 48.8885Z" fill="url(#paint0_linear_1_128)"/>
<defs>
<linearGradient id="paint0_linear_1_128" x1="-6.61348" y1="28.5992" x2="93.8068" y2="46.7342" gradientUnits="userSpaceOnUse">
<stop offset="0.270833" stop-color="#A3A3A3"/>
<stop offset="0.412103" stop-color="#CCCCCC"/>
<stop offset="0.551716" stop-color="white"/>
<stop offset="0.677083" stop-color="#CCCCCC"/>
<stop offset="0.833333" stop-color="#A3A3A3"/>
</linearGradient>
</defs>
</svg>
