<svg width="64" height="61" viewBox="0 0 64 61" fill="none" xmlns="http://www.w3.org/2000/svg">
<g clip-path="url(#clip0_1_11147)">
<path d="M3.98988 33.1437L12.2127 37.6612L7.8878 36.8278C9.884 38.0882 12.6608 39.4256 16.4077 40.8494L25.027 40.6698L20.456 42.2453C22.7095 42.8879 25.3004 43.367 28.0163 43.6094L32.9944 40.5952L30.2474 43.7648C33.0503 43.8829 35.9153 43.7648 38.625 43.3298C41.467 42.8779 44.1413 42.0719 46.3432 40.8059L46.9224 43.7219C48.2387 42.0924 49.0348 40.328 49.4151 38.3592L50.8644 41.0887C51.8501 39.1534 52.0185 37.4325 51.4704 35.3555C54.2751 34.0212 56.7828 32.2034 59.3097 30.4173L58.3589 29.0811C43.8137 40.9737 26.0276 40.0421 13.8354 35.3176L14.4867 33.8087C25.4372 37.985 37.034 38.1466 48.3512 32.9821C47.2325 31.851 45.9958 30.8877 44.7155 30.1295L40.6262 33.6098L43.2612 29.3464C42.3352 28.9176 41.4154 28.5945 40.5143 28.3894L39.0973 32.3793L39.2216 28.1781C38.3267 28.0786 37.469 28.1159 36.6673 28.2961C31.826 29.3589 26.9163 30.316 20.571 28.8803L22.4043 32.7273L18.1783 28.2402C17.1093 27.8922 15.9223 27.5877 14.9404 27.4385L17.7805 30.7758L12.0443 27.2272C11.3233 27.2272 10.6086 27.2707 9.92502 27.3453C7.48633 27.6336 5.33974 28.326 4.22294 29.7908C3.65801 30.5173 3.43614 31.5098 3.72388 32.4775C3.79846 32.7136 3.89479 32.9529 3.98988 33.1437Z" fill="url(#paint0_linear_1_11147)"/>
</g>
<defs>
<linearGradient id="paint0_linear_1_11147" x1="34.9421" y1="65.5382" x2="2.53901" y2="27.743" gradientUnits="userSpaceOnUse">
<stop offset="0.270833" stop-color="#A3A3A3"/>
<stop offset="0.412103" stop-color="#CCCCCC"/>
<stop offset="0.551716" stop-color="white"/>
<stop offset="0.677083" stop-color="#CCCCCC"/>
<stop offset="0.833333" stop-color="#A3A3A3"/>
</linearGradient>
<clipPath id="clip0_1_11147">
<rect width="45" height="45" fill="white" transform="translate(32 63.6396) rotate(-135)"/>
</clipPath>
</defs>
</svg>
